<svg width="40" height="40" viewBox="0 0 40 40" fill="none" xmlns="http://www.w3.org/2000/svg">
<path d="M16.6665 11.6667H29.9998" stroke="#ADBBBE" stroke-width="3.33333" stroke-linecap="round"/>
<path d="M16.6665 20H29.9998" stroke="#ADBBBE" stroke-width="3.33333" stroke-linecap="round"/>
<path d="M16.6665 28.3333H29.9998" stroke="#ADBBBE" stroke-width="3.33333" stroke-linecap="round"/>
<path fill-rule="evenodd" clip-rule="evenodd" d="M10.0002 13.3333C10.9206 13.3333 11.6668 12.5871 11.6668 11.6667C11.6668 10.7462 10.9206 10 10.0002 10C9.07969 10 8.3335 10.7462 8.3335 11.6667C8.3335 12.5871 9.07969 13.3333 10.0002 13.3333Z" fill="#ADBBBE"/>
<path fill-rule="evenodd" clip-rule="evenodd" d="M10.0002 21.6667C10.9206 21.6667 11.6668 20.9205 11.6668 20C11.6668 19.0795 10.9206 18.3333 10.0002 18.3333C9.07969 18.3333 8.3335 19.0795 8.3335 20C8.3335 20.9205 9.07969 21.6667 10.0002 21.6667Z" fill="#ADBBBE"/>
<path fill-rule="evenodd" clip-rule="evenodd" d="M10.0002 30C10.9206 30 11.6668 29.2538 11.6668 28.3333C11.6668 27.4128 10.9206 26.6667 10.0002 26.6667C9.07969 26.6667 8.3335 27.4128 8.3335 28.3333C8.3335 29.2538 9.07969 30 10.0002 30Z" fill="#ADBBBE"/>
</svg>
